# xmcd
#
# Track frame offsets: 
#        150
#        10064
#        30575
#        57747
#        80346
#        98209
#        121244
#        141934
#        177020
#        198178
#        217443
#        240190
#        253541
#        274972
#        297801
#        318635
#
# Disc length: 4669 seconds
#
# Revision: 1
# Processed by: cddbd v1.5.2PL0 Copyright (c) Steve Scherf et al.
# Submitted via: ExactAudioCopy v0.99pb4
#
DISCID=e7123b10
DTITLE=Bruce Springsteen - Dusseldorf, 6-16-05(vortex242 version-Disc 
DTITLE=1)
DYEAR=2005
DGENRE=Rock and Roll
TTITLE0=Intro
TTITLE1=My Beautiful Reward
TTITLE2=Reason To Believe
TTITLE3=Devils and Dust
TTITLE4=Lonesome Day
TTITLE5=Long Time Comin'
TTITLE6=Highway 29
TTITLE7=Incident On 57th Street
TTITLE8=Tougher Than The Rest
TTITLE9=State Trooper
TTITLE10=All I'm Thinking About
TTITLE11=I'm On Fire
TTITLE12=Reno
TTITLE13=I Wish I Were Blind
TTITLE14=Mary's Place
TTITLE15=Racing In The Street
EXTD=
EXTT0=
EXTT1=
EXTT2=
EXTT3=
EXTT4=
EXTT5=
EXTT6=
EXTT7=
EXTT8=
EXTT9=
EXTT10=
EXTT11=
EXTT12=
EXTT13=
EXTT14=
EXTT15=
PLAYORDER=
